<?xml version="1.0" encoding="UTF-8"?>
<!DOCTYPE svg PUBLIC "-//W3C//DTD SVG 1.1//EN" "http://www.w3.org/Graphics/SVG/1.1/DTD/svg11.dtd">
<svg xmlns="http://www.w3.org/2000/svg" version="1.1" width="200px" height="200px" style="shape-rendering:geometricPrecision; text-rendering:geometricPrecision; image-rendering:optimizeQuality; fill-rule:evenodd; clip-rule:evenodd" xmlns:xlink="http://www.w3.org/1999/xlink">
<g><path style="opacity:0.963" fill="#b9dbf8" d="M 140.5,78.5 C 139.954,76.6968 139.12,75.0302 138,73.5C 128.878,78.694 122.045,76.5273 117.5,67C 104.134,66.6319 98.3004,59.7986 100,46.5C 102.094,42.724 104.927,39.724 108.5,37.5C 110.717,36.6314 113.05,36.298 115.5,36.5C 114.942,26.8948 119.942,21.2282 130.5,19.5C 134.074,19.6912 137.407,20.6912 140.5,22.5C 150.615,13.1912 160.782,13.1912 171,22.5C 174.009,27.0286 175.509,32.0286 175.5,37.5C 183.347,39.8296 187.347,45.163 187.5,53.5C 186.592,63.9125 180.925,70.0792 170.5,72C 162.873,84.6869 152.873,86.8536 140.5,78.5 Z"/></g>
<g><path style="opacity:0.976" fill="#434242" d="M 108.5,37.5 C 104.927,39.724 102.094,42.724 100,46.5C 98.3004,59.7986 104.134,66.6319 117.5,67C 122.045,76.5273 128.878,78.694 138,73.5C 139.12,75.0302 139.954,76.6968 140.5,78.5C 141.648,88.129 142.315,97.7957 142.5,107.5C 138.145,109.855 134.812,113.188 132.5,117.5C 131.833,117.833 131.167,118.167 130.5,118.5C 129.833,110.833 129.167,103.167 128.5,95.5C 120.329,88.1556 111.829,81.1556 103,74.5C 78.5,82.6667 54,90.8333 29.5,99C 28.686,105.753 28.186,112.586 28,119.5C 26.9609,118.29 25.7942,117.29 24.5,116.5C 22.1002,113.097 19.1002,110.43 15.5,108.5C 11.5255,80.6543 20.1922,57.821 41.5,40C 55.0011,30.7062 70.0011,26.5395 86.5,27.5C 90.8333,27.6667 95.1667,27.8333 99.5,28C 101.377,30.2513 102.877,32.7513 104,35.5C 105.47,36.2666 106.97,36.9332 108.5,37.5 Z"/></g>
<g><path style="opacity:1" fill="#246cc3" d="M 125.5,45.5 C 132.536,44.6026 134.203,47.1026 130.5,53C 125.293,53.1169 123.626,50.6169 125.5,45.5 Z"/></g>
<g><path style="opacity:1" fill="#236bc3" d="M 142.5,45.5 C 149.004,45.1377 150.671,47.6377 147.5,53C 141.785,53.401 140.119,50.901 142.5,45.5 Z"/></g>
<g><path style="opacity:1" fill="#246bc3" d="M 159.5,45.5 C 165.704,45.3137 167.037,47.8137 163.5,53C 157.808,52.7828 156.475,50.2828 159.5,45.5 Z"/></g>
<g><path style="opacity:0.993" fill="#fdb54b" d="M 128.5,95.5 C 128.169,103.528 128.502,111.528 129.5,119.5C 130.107,119.376 130.44,119.043 130.5,118.5C 131.167,118.167 131.833,117.833 132.5,117.5C 132.5,122.5 132.5,127.5 132.5,132.5C 133.5,132.5 134.5,132.5 135.5,132.5C 134.531,133.309 133.698,134.309 133,135.5C 128.283,159.66 114.783,174.994 92.5,181.5C 76.7149,185.72 61.7149,183.22 47.5,174C 39.382,167.92 33.0487,160.92 28.5,153C 28.8333,152.667 29.1667,152.333 29.5,152C 26.2996,146.017 24.633,139.85 24.5,133.5C 22.901,133.768 21.5676,133.434 20.5,132.5C 21.8333,132.5 23.1667,132.5 24.5,132.5C 24.5,127.167 24.5,121.833 24.5,116.5C 25.7942,117.29 26.9609,118.29 28,119.5C 28.186,112.586 28.686,105.753 29.5,99C 54,90.8333 78.5,82.6667 103,74.5C 111.829,81.1556 120.329,88.1556 128.5,95.5 Z"/></g>
<g><path style="opacity:0.996" fill="#6e5c44" d="M 128.5,95.5 C 129.167,103.167 129.833,110.833 130.5,118.5C 130.44,119.043 130.107,119.376 129.5,119.5C 128.502,111.528 128.169,103.528 128.5,95.5 Z"/></g>
<g><path style="opacity:0.968" fill="#fba52a" d="M 15.5,108.5 C 19.1002,110.43 22.1002,113.097 24.5,116.5C 24.5,121.833 24.5,127.167 24.5,132.5C 23.1667,132.5 21.8333,132.5 20.5,132.5C 12.8296,128.483 9.99622,122.15 12,113.5C 12.2233,111.119 13.39,109.453 15.5,108.5 Z"/></g>
<g><path style="opacity:0.972" fill="#fba62b" d="M 142.5,107.5 C 148.362,116.217 147.362,124.05 139.5,131C 138.255,131.791 136.922,132.291 135.5,132.5C 134.5,132.5 133.5,132.5 132.5,132.5C 132.5,127.5 132.5,122.5 132.5,117.5C 134.812,113.188 138.145,109.855 142.5,107.5 Z"/></g>
<g><path style="opacity:1" fill="#7c4a1a" d="M 52.5,112.5 C 61.0225,112.061 63.3558,115.561 59.5,123C 53.7867,126.059 50.4533,124.393 49.5,118C 49.8627,115.808 50.8627,113.974 52.5,112.5 Z"/></g>
<g><path style="opacity:1" fill="#7d4b1a" d="M 97.5,112.5 C 107.055,111.195 109.722,114.695 105.5,123C 99.7867,126.059 96.4533,124.393 95.5,118C 95.9543,116.061 96.621,114.228 97.5,112.5 Z"/></g>
</svg>
